<svg id="visual" viewBox="0 0 900 600" width="900" height="600" xmlns="http://www.w3.org/2000/svg" xmlns:xlink="http://www.w3.org/1999/xlink" version="1.1"><rect x="0" y="0" width="900" height="600" fill="#FFFFFF"></rect><path d="M0 98L18.8 92.8C37.7 87.7 75.3 77.3 112.8 71.8C150.3 66.3 187.7 65.7 225.2 70C262.7 74.3 300.3 83.7 337.8 84.7C375.3 85.7 412.7 78.3 450.2 78.2C487.7 78 525.3 85 562.8 85.5C600.3 86 637.7 80 675.2 80.5C712.7 81 750.3 88 787.8 91.2C825.3 94.3 862.7 93.7 881.3 93.3L900 93L900 0L881.3 0C862.7 0 825.3 0 787.8 0C750.3 0 712.7 0 675.2 0C637.7 0 600.3 0 562.8 0C525.3 0 487.7 0 450.2 0C412.7 0 375.3 0 337.8 0C300.3 0 262.7 0 225.2 0C187.7 0 150.3 0 112.8 0C75.3 0 37.7 0 18.8 0L0 0Z" fill="#ff8ff1"></path><path d="M0 67L18.8 64.5C37.7 62 75.3 57 112.8 58.2C150.3 59.3 187.7 66.7 225.2 69.2C262.7 71.7 300.3 69.3 337.8 65.5C375.3 61.7 412.7 56.3 450.2 58.7C487.7 61 525.3 71 562.8 73.2C600.3 75.3 637.7 69.7 675.2 66.2C712.7 62.7 750.3 61.3 787.8 62.7C825.3 64 862.7 68 881.3 70L900 72L900 0L881.3 0C862.7 0 825.3 0 787.8 0C750.3 0 712.7 0 675.2 0C637.7 0 600.3 0 562.8 0C525.3 0 487.7 0 450.2 0C412.7 0 375.3 0 337.8 0C300.3 0 262.7 0 225.2 0C187.7 0 150.3 0 112.8 0C75.3 0 37.7 0 18.8 0L0 0Z" fill="#ff74ca"></path><path d="M0 59L18.8 58.7C37.7 58.3 75.3 57.7 112.8 58C150.3 58.3 187.7 59.7 225.2 58C262.7 56.3 300.3 51.7 337.8 51.7C375.3 51.7 412.7 56.3 450.2 54.5C487.7 52.7 525.3 44.3 562.8 43.3C600.3 42.3 637.7 48.7 675.2 50.5C712.7 52.3 750.3 49.7 787.8 49.7C825.3 49.7 862.7 52.3 881.3 53.7L900 55L900 0L881.3 0C862.7 0 825.3 0 787.8 0C750.3 0 712.7 0 675.2 0C637.7 0 600.3 0 562.8 0C525.3 0 487.7 0 450.2 0C412.7 0 375.3 0 337.8 0C300.3 0 262.7 0 225.2 0C187.7 0 150.3 0 112.8 0C75.3 0 37.7 0 18.8 0L0 0Z" fill="#ff5ba0"></path><path d="M0 42L18.8 40.7C37.7 39.3 75.3 36.7 112.8 33.5C150.3 30.3 187.7 26.7 225.2 26.8C262.7 27 300.3 31 337.8 34.8C375.3 38.7 412.7 42.3 450.2 41.8C487.7 41.3 525.3 36.7 562.8 32.7C600.3 28.7 637.7 25.3 675.2 26.8C712.7 28.3 750.3 34.7 787.8 36.8C825.3 39 862.7 37 881.3 36L900 35L900 0L881.3 0C862.7 0 825.3 0 787.8 0C750.3 0 712.7 0 675.2 0C637.7 0 600.3 0 562.8 0C525.3 0 487.7 0 450.2 0C412.7 0 375.3 0 337.8 0C300.3 0 262.7 0 225.2 0C187.7 0 150.3 0 112.8 0C75.3 0 37.7 0 18.8 0L0 0Z" fill="#ff4773"></path><path d="M0 9L18.8 9.3C37.7 9.7 75.3 10.3 112.8 13.7C150.3 17 187.7 23 225.2 24.3C262.7 25.7 300.3 22.3 337.8 21.2C375.3 20 412.7 21 450.2 19.5C487.7 18 525.3 14 562.8 12.3C600.3 10.7 637.7 11.3 675.2 12.2C712.7 13 750.3 14 787.8 14.5C825.3 15 862.7 15 881.3 15L900 15L900 0L881.3 0C862.7 0 825.3 0 787.8 0C750.3 0 712.7 0 675.2 0C637.7 0 600.3 0 562.8 0C525.3 0 487.7 0 450.2 0C412.7 0 375.3 0 337.8 0C300.3 0 262.7 0 225.2 0C187.7 0 150.3 0 112.8 0C75.3 0 37.7 0 18.8 0L0 0Z" fill="#ff4141"></path></svg>