<svg id="visual" viewBox="0 0 900 450" width="900" height="450" xmlns="http://www.w3.org/2000/svg" xmlns:xlink="http://www.w3.org/1999/xlink" version="1.1"><rect x="0" y="0" width="900" height="450" fill="#001220"></rect><path d="M0 66L11.5 64C23 62 46 58 69 57C92 56 115 58 138.2 60.5C161.3 63 184.7 66 207.8 67.3C231 68.7 254 68.3 277 68.8C300 69.3 323 70.7 346 68.7C369 66.7 392 61.3 415.2 58.7C438.3 56 461.7 56 484.8 56.2C508 56.3 531 56.7 554 59.5C577 62.3 600 67.7 623 66.5C646 65.3 669 57.7 692.2 56.3C715.3 55 738.7 60 761.8 59.8C785 59.7 808 54.3 831 51.2C854 48 877 47 888.5 46.5L900 46L900 0L888.5 0C877 0 854 0 831 0C808 0 785 0 761.8 0C738.7 0 715.3 0 692.2 0C669 0 646 0 623 0C600 0 577 0 554 0C531 0 508 0 484.8 0C461.7 0 438.3 0 415.2 0C392 0 369 0 346 0C323 0 300 0 277 0C254 0 231 0 207.8 0C184.7 0 161.3 0 138.2 0C115 0 92 0 69 0C46 0 23 0 11.5 0L0 0Z" fill="#ff8ff1"></path><path d="M0 49L11.5 48.7C23 48.3 46 47.7 69 46.7C92 45.7 115 44.3 138.2 45.2C161.3 46 184.7 49 207.8 48.2C231 47.3 254 42.7 277 43.7C300 44.7 323 51.3 346 53.7C369 56 392 54 415.2 54C438.3 54 461.7 56 484.8 54.7C508 53.3 531 48.7 554 45.8C577 43 600 42 623 41C646 40 669 39 692.2 40.2C715.3 41.3 738.7 44.7 761.8 47C785 49.3 808 50.7 831 51.8C854 53 877 54 888.5 54.5L900 55L900 0L888.5 0C877 0 854 0 831 0C808 0 785 0 761.8 0C738.7 0 715.3 0 692.2 0C669 0 646 0 623 0C600 0 577 0 554 0C531 0 508 0 484.8 0C461.7 0 438.3 0 415.2 0C392 0 369 0 346 0C323 0 300 0 277 0C254 0 231 0 207.8 0C184.7 0 161.3 0 138.2 0C115 0 92 0 69 0C46 0 23 0 11.5 0L0 0Z" fill="#ff79d2"></path><path d="M0 48L11.5 46.2C23 44.3 46 40.7 69 39.7C92 38.7 115 40.3 138.2 39.8C161.3 39.3 184.7 36.7 207.8 37C231 37.3 254 40.7 277 41.5C300 42.3 323 40.7 346 41.2C369 41.7 392 44.3 415.2 44.3C438.3 44.3 461.7 41.7 484.8 42C508 42.3 531 45.7 554 45.7C577 45.7 600 42.3 623 41.8C646 41.3 669 43.7 692.2 42.7C715.3 41.7 738.7 37.3 761.8 38.3C785 39.3 808 45.7 831 48.2C854 50.7 877 49.3 888.5 48.7L900 48L900 0L888.5 0C877 0 854 0 831 0C808 0 785 0 761.8 0C738.7 0 715.3 0 692.2 0C669 0 646 0 623 0C600 0 577 0 554 0C531 0 508 0 484.8 0C461.7 0 438.3 0 415.2 0C392 0 369 0 346 0C323 0 300 0 277 0C254 0 231 0 207.8 0C184.7 0 161.3 0 138.2 0C115 0 92 0 69 0C46 0 23 0 11.5 0L0 0Z" fill="#ff65b1"></path><path d="M0 30L11.5 29.5C23 29 46 28 69 29.3C92 30.7 115 34.3 138.2 35.8C161.3 37.3 184.7 36.7 207.8 36.2C231 35.7 254 35.3 277 34C300 32.7 323 30.3 346 31.2C369 32 392 36 415.2 37.7C438.3 39.3 461.7 38.7 484.8 37.8C508 37 531 36 554 34.8C577 33.7 600 32.3 623 30.3C646 28.3 669 25.7 692.2 24.3C715.3 23 738.7 23 761.8 24.3C785 25.7 808 28.3 831 28.8C854 29.3 877 27.7 888.5 26.8L900 26L900 0L888.5 0C877 0 854 0 831 0C808 0 785 0 761.8 0C738.7 0 715.3 0 692.2 0C669 0 646 0 623 0C600 0 577 0 554 0C531 0 508 0 484.8 0C461.7 0 438.3 0 415.2 0C392 0 369 0 346 0C323 0 300 0 277 0C254 0 231 0 207.8 0C184.7 0 161.3 0 138.2 0C115 0 92 0 69 0C46 0 23 0 11.5 0L0 0Z" fill="#ff528f"></path><path d="M0 19L11.5 20.5C23 22 46 25 69 25.2C92 25.3 115 22.7 138.2 21.3C161.3 20 184.7 20 207.8 21.3C231 22.7 254 25.3 277 24.7C300 24 323 20 346 20C369 20 392 24 415.2 23.7C438.3 23.3 461.7 18.7 484.8 18.5C508 18.3 531 22.7 554 24.7C577 26.7 600 26.3 623 25.2C646 24 669 22 692.2 20.7C715.3 19.3 738.7 18.7 761.8 19.5C785 20.3 808 22.7 831 24.5C854 26.3 877 27.7 888.5 28.3L900 29L900 0L888.5 0C877 0 854 0 831 0C808 0 785 0 761.8 0C738.7 0 715.3 0 692.2 0C669 0 646 0 623 0C600 0 577 0 554 0C531 0 508 0 484.8 0C461.7 0 438.3 0 415.2 0C392 0 369 0 346 0C323 0 300 0 277 0C254 0 231 0 207.8 0C184.7 0 161.3 0 138.2 0C115 0 92 0 69 0C46 0 23 0 11.5 0L0 0Z" fill="#ff446a"></path><path d="M0 17L11.5 17.2C23 17.3 46 17.7 69 17C92 16.3 115 14.7 138.2 14.7C161.3 14.7 184.7 16.3 207.8 16.8C231 17.3 254 16.7 277 16.5C300 16.3 323 16.7 346 16.7C369 16.7 392 16.3 415.2 16.2C438.3 16 461.7 16 484.8 15.8C508 15.7 531 15.3 554 14.5C577 13.7 600 12.3 623 12.8C646 13.3 669 15.7 692.2 16.7C715.3 17.7 738.7 17.3 761.8 16C785 14.7 808 12.3 831 11.3C854 10.3 877 10.7 888.5 10.8L900 11L900 0L888.5 0C877 0 854 0 831 0C808 0 785 0 761.8 0C738.7 0 715.3 0 692.2 0C669 0 646 0 623 0C600 0 577 0 554 0C531 0 508 0 484.8 0C461.7 0 438.3 0 415.2 0C392 0 369 0 346 0C323 0 300 0 277 0C254 0 231 0 207.8 0C184.7 0 161.3 0 138.2 0C115 0 92 0 69 0C46 0 23 0 11.5 0L0 0Z" fill="#ff4141"></path></svg>