<svg id="visual" viewBox="0 0 900 675" width="900" height="675" xmlns="http://www.w3.org/2000/svg" xmlns:xlink="http://www.w3.org/1999/xlink" version="1.1"><path d="M0 48L12.5 45.8C25 43.7 50 39.3 75 37.2C100 35 125 35 150 36.2C175 37.3 200 39.7 225 40.8C250 42 275 42 300 43C325 44 350 46 375 46C400 46 425 44 450 46.3C475 48.7 500 55.3 525 57.5C550 59.7 575 57.3 600 55C625 52.7 650 50.3 675 50.3C700 50.3 725 52.7 750 52.7C775 52.7 800 50.3 825 49.2C850 48 875 48 887.5 48L900 48L900 0L887.5 0C875 0 850 0 825 0C800 0 775 0 750 0C725 0 700 0 675 0C650 0 625 0 600 0C575 0 550 0 525 0C500 0 475 0 450 0C425 0 400 0 375 0C350 0 325 0 300 0C275 0 250 0 225 0C200 0 175 0 150 0C125 0 100 0 75 0C50 0 25 0 12.5 0L0 0Z" fill="#ff8ff1"></path><path d="M0 123L12.5 119.5C25 116 50 109 75 104.5C100 100 125 98 150 97C175 96 200 96 225 100.5C250 105 275 114 300 115C325 116 350 109 375 103.3C400 97.7 425 93.3 450 95.7C475 98 500 107 525 112.7C550 118.3 575 120.7 600 119.5C625 118.3 650 113.7 675 114.7C700 115.7 725 122.3 750 120.2C775 118 800 107 825 101.5C850 96 875 96 887.5 96L900 96L900 46L887.5 46C875 46 850 46 825 47.2C800 48.3 775 50.7 750 50.7C725 50.7 700 48.3 675 48.3C650 48.3 625 50.7 600 53C575 55.3 550 57.7 525 55.5C500 53.3 475 46.7 450 44.3C425 42 400 44 375 44C350 44 325 42 300 41C275 40 250 40 225 38.8C200 37.7 175 35.3 150 34.2C125 33 100 33 75 35.2C50 37.3 25 41.7 12.5 43.8L0 46Z" fill="#ff7dd7"></path><path d="M0 183L12.5 183C25 183 50 183 75 185.3C100 187.7 125 192.3 150 187.8C175 183.3 200 169.7 225 170.8C250 172 275 188 300 190.3C325 192.7 350 181.3 375 176.8C400 172.3 425 174.7 450 182.5C475 190.3 500 203.7 525 204.7C550 205.7 575 194.3 600 191C625 187.7 650 192.3 675 192.3C700 192.3 725 187.7 750 179.8C775 172 800 161 825 164.5C850 168 875 186 887.5 195L900 204L900 94L887.5 94C875 94 850 94 825 99.5C800 105 775 116 750 118.2C725 120.3 700 113.7 675 112.7C650 111.7 625 116.3 600 117.5C575 118.7 550 116.3 525 110.7C500 105 475 96 450 93.7C425 91.3 400 95.7 375 101.3C350 107 325 114 300 113C275 112 250 103 225 98.5C200 94 175 94 150 95C125 96 100 98 75 102.5C50 107 25 114 12.5 117.5L0 121Z" fill="#ff6cbc"></path><path d="M0 305L12.5 298.2C25 291.3 50 277.7 75 276.5C100 275.3 125 286.7 150 284.5C175 282.3 200 266.7 225 267.8C250 269 275 287 300 290.3C325 293.7 350 282.3 375 280C400 277.7 425 284.3 450 286.7C475 289 500 287 525 286C550 285 575 285 600 283.8C625 282.7 650 280.3 675 279.2C700 278 725 278 750 269C775 260 800 242 825 243.2C850 244.3 875 264.7 887.5 274.8L900 285L900 202L887.5 193C875 184 850 166 825 162.5C800 159 775 170 750 177.8C725 185.7 700 190.3 675 190.3C650 190.3 625 185.7 600 189C575 192.3 550 203.7 525 202.7C500 201.7 475 188.3 450 180.5C425 172.7 400 170.3 375 174.8C350 179.3 325 190.7 300 188.3C275 186 250 170 225 168.8C200 167.7 175 181.3 150 185.8C125 190.3 100 185.7 75 183.3C50 181 25 181 12.5 181L0 181Z" fill="#ff5ba0"></path><path d="M0 359L12.5 353.3C25 347.7 50 336.3 75 335.2C100 334 125 343 150 343C175 343 200 334 225 337.3C250 340.7 275 356.3 300 359.7C325 363 350 354 375 349.5C400 345 425 345 450 345C475 345 500 345 525 346.2C550 347.3 575 349.7 600 349.7C625 349.7 650 347.3 675 342.8C700 338.3 725 331.7 750 323.8C775 316 800 307 825 308.2C850 309.3 875 320.7 887.5 326.3L900 332L900 283L887.5 272.8C875 262.7 850 242.3 825 241.2C800 240 775 258 750 267C725 276 700 276 675 277.2C650 278.3 625 280.7 600 281.8C575 283 550 283 525 284C500 285 475 287 450 284.7C425 282.3 400 275.7 375 278C350 280.3 325 291.7 300 288.3C275 285 250 267 225 265.8C200 264.7 175 280.3 150 282.5C125 284.7 100 273.3 75 274.5C50 275.7 25 289.3 12.5 296.2L0 303Z" fill="#ff4c83"></path><path d="M0 548L12.5 537.8C25 527.7 50 507.3 75 507.3C100 507.3 125 527.7 150 536.7C175 545.7 200 543.3 225 542.2C250 541 275 541 300 533.2C325 525.3 350 509.7 375 507.5C400 505.3 425 516.7 450 517.8C475 519 500 510 525 499.8C550 489.7 575 478.3 600 482.8C625 487.3 650 507.7 675 513.3C700 519 725 510 750 499.8C775 489.7 800 478.3 825 482.8C850 487.3 875 507.7 887.5 517.8L900 528L900 330L887.5 324.3C875 318.7 850 307.3 825 306.2C800 305 775 314 750 321.8C725 329.7 700 336.3 675 340.8C650 345.3 625 347.7 600 347.7C575 347.7 550 345.3 525 344.2C500 343 475 343 450 343C425 343 400 343 375 347.5C350 352 325 361 300 357.7C275 354.3 250 338.7 225 335.3C200 332 175 341 150 341C125 341 100 332 75 333.2C50 334.3 25 345.7 12.5 351.3L0 357Z" fill="#ff4363"></path><path d="M0 676L12.5 676C25 676 50 676 75 676C100 676 125 676 150 676C175 676 200 676 225 676C250 676 275 676 300 676C325 676 350 676 375 676C400 676 425 676 450 676C475 676 500 676 525 676C550 676 575 676 600 676C625 676 650 676 675 676C700 676 725 676 750 676C775 676 800 676 825 676C850 676 875 676 887.5 676L900 676L900 526L887.5 515.8C875 505.7 850 485.3 825 480.8C800 476.3 775 487.7 750 497.8C725 508 700 517 675 511.3C650 505.7 625 485.3 600 480.8C575 476.3 550 487.7 525 497.8C500 508 475 517 450 515.8C425 514.7 400 503.3 375 505.5C350 507.7 325 523.3 300 531.2C275 539 250 539 225 540.2C200 541.3 175 543.7 150 534.7C125 525.7 100 505.3 75 505.3C50 505.3 25 525.7 12.5 535.8L0 546Z" fill="#ff4141"></path></svg>